<mxfile host="app.diagrams.net" modified="2020-09-24T19:22:55.195Z" agent="5.0 (Macintosh; Intel Mac OS X 10_15_3) AppleWebKit/605.1.15 (KHTML, like Gecko) Version/13.0.5 Safari/605.1.15" etag="CdGTwFjP9nxAYu1Hxmyo" version="13.7.5" type="github">
  <diagram id="R2lEEEUBdFMjLlhIrx00" name="Page-1">
    <mxGraphModel dx="1377" dy="801" grid="1" gridSize="10" guides="1" tooltips="1" connect="1" arrows="1" fold="1" page="1" pageScale="1" pageWidth="850" pageHeight="1100" math="0" shadow="0" extFonts="Permanent Marker^https://fonts.googleapis.com/css?family=Permanent+Marker">
      <root>
        <mxCell id="0" />
        <mxCell id="1" parent="0" />
        <mxCell id="QizWD92erUkwesUpK60B-31" style="edgeStyle=orthogonalEdgeStyle;rounded=0;orthogonalLoop=1;jettySize=auto;html=1;" edge="1" parent="1" source="QizWD92erUkwesUpK60B-2">
          <mxGeometry relative="1" as="geometry">
            <mxPoint x="220" y="330" as="targetPoint" />
          </mxGeometry>
        </mxCell>
        <mxCell id="QizWD92erUkwesUpK60B-32" style="edgeStyle=orthogonalEdgeStyle;rounded=0;orthogonalLoop=1;jettySize=auto;html=1;" edge="1" parent="1" source="QizWD92erUkwesUpK60B-2">
          <mxGeometry relative="1" as="geometry">
            <mxPoint x="220" y="330" as="targetPoint" />
          </mxGeometry>
        </mxCell>
        <mxCell id="QizWD92erUkwesUpK60B-47" style="edgeStyle=orthogonalEdgeStyle;rounded=0;orthogonalLoop=1;jettySize=auto;html=1;exitX=0;exitY=0.25;exitDx=0;exitDy=0;entryX=0;entryY=0.75;entryDx=0;entryDy=0;" edge="1" parent="1" source="QizWD92erUkwesUpK60B-2" target="QizWD92erUkwesUpK60B-11">
          <mxGeometry relative="1" as="geometry" />
        </mxCell>
        <mxCell id="QizWD92erUkwesUpK60B-49" value="Event" style="edgeLabel;html=1;align=center;verticalAlign=middle;resizable=0;points=[];" vertex="1" connectable="0" parent="QizWD92erUkwesUpK60B-47">
          <mxGeometry x="0.0292" y="1" relative="1" as="geometry">
            <mxPoint as="offset" />
          </mxGeometry>
        </mxCell>
        <mxCell id="QizWD92erUkwesUpK60B-2" value="&amp;nbsp; Bot" style="rounded=0;whiteSpace=wrap;html=1;direction=west;fillColor=#dae8fc;strokeColor=#6c8ebf;" vertex="1" parent="1">
          <mxGeometry x="160" y="290" width="120" height="60" as="geometry" />
        </mxCell>
        <mxCell id="QizWD92erUkwesUpK60B-10" value="Event" style="edgeStyle=orthogonalEdgeStyle;rounded=0;orthogonalLoop=1;jettySize=auto;html=1;exitX=0.5;exitY=1;exitDx=0;exitDy=0;" edge="1" parent="1" source="QizWD92erUkwesUpK60B-6" target="QizWD92erUkwesUpK60B-2">
          <mxGeometry relative="1" as="geometry" />
        </mxCell>
        <mxCell id="QizWD92erUkwesUpK60B-18" style="edgeStyle=orthogonalEdgeStyle;rounded=0;orthogonalLoop=1;jettySize=auto;html=1;exitX=0.5;exitY=0;exitDx=0;exitDy=0;entryX=0.5;entryY=1;entryDx=0;entryDy=0;" edge="1" parent="1" source="QizWD92erUkwesUpK60B-6" target="QizWD92erUkwesUpK60B-15">
          <mxGeometry relative="1" as="geometry" />
        </mxCell>
        <mxCell id="QizWD92erUkwesUpK60B-6" value="LongPoll" style="rounded=1;whiteSpace=wrap;html=1;" vertex="1" parent="1">
          <mxGeometry x="80" y="130" width="120" height="60" as="geometry" />
        </mxCell>
        <mxCell id="QizWD92erUkwesUpK60B-9" value="Event" style="edgeStyle=orthogonalEdgeStyle;rounded=0;orthogonalLoop=1;jettySize=auto;html=1;" edge="1" parent="1" source="QizWD92erUkwesUpK60B-7" target="QizWD92erUkwesUpK60B-2">
          <mxGeometry relative="1" as="geometry" />
        </mxCell>
        <mxCell id="QizWD92erUkwesUpK60B-7" value="Callback" style="rounded=1;whiteSpace=wrap;html=1;" vertex="1" parent="1">
          <mxGeometry x="230" y="130" width="120" height="60" as="geometry" />
        </mxCell>
        <mxCell id="QizWD92erUkwesUpK60B-41" value="Event" style="edgeStyle=orthogonalEdgeStyle;rounded=0;orthogonalLoop=1;jettySize=auto;html=1;" edge="1" parent="1" source="QizWD92erUkwesUpK60B-11" target="QizWD92erUkwesUpK60B-40">
          <mxGeometry relative="1" as="geometry" />
        </mxCell>
        <mxCell id="QizWD92erUkwesUpK60B-48" style="edgeStyle=orthogonalEdgeStyle;rounded=0;orthogonalLoop=1;jettySize=auto;html=1;exitX=0;exitY=0.25;exitDx=0;exitDy=0;entryX=0;entryY=0.75;entryDx=0;entryDy=0;" edge="1" parent="1" source="QizWD92erUkwesUpK60B-11" target="QizWD92erUkwesUpK60B-2">
          <mxGeometry relative="1" as="geometry" />
        </mxCell>
        <mxCell id="QizWD92erUkwesUpK60B-50" value="Handling info" style="edgeLabel;html=1;align=center;verticalAlign=middle;resizable=0;points=[];" vertex="1" connectable="0" parent="QizWD92erUkwesUpK60B-48">
          <mxGeometry x="-0.0375" y="-3" relative="1" as="geometry">
            <mxPoint as="offset" />
          </mxGeometry>
        </mxCell>
        <mxCell id="QizWD92erUkwesUpK60B-11" value="handle_event" style="rounded=1;whiteSpace=wrap;html=1;" vertex="1" parent="1">
          <mxGeometry x="440" y="290" width="120" height="60" as="geometry" />
        </mxCell>
        <mxCell id="QizWD92erUkwesUpK60B-16" value="Requests" style="edgeStyle=orthogonalEdgeStyle;rounded=0;orthogonalLoop=1;jettySize=auto;html=1;" edge="1" parent="1" source="QizWD92erUkwesUpK60B-15" target="QizWD92erUkwesUpK60B-6">
          <mxGeometry relative="1" as="geometry" />
        </mxCell>
        <mxCell id="QizWD92erUkwesUpK60B-17" value="Requests" style="edgeStyle=orthogonalEdgeStyle;rounded=0;orthogonalLoop=1;jettySize=auto;html=1;" edge="1" parent="1" source="QizWD92erUkwesUpK60B-15" target="QizWD92erUkwesUpK60B-7">
          <mxGeometry relative="1" as="geometry" />
        </mxCell>
        <mxCell id="QizWD92erUkwesUpK60B-15" value="VK" style="rounded=1;whiteSpace=wrap;html=1;" vertex="1" parent="1">
          <mxGeometry x="160" y="20" width="120" height="50" as="geometry" />
        </mxCell>
        <mxCell id="QizWD92erUkwesUpK60B-20" value="" style="rounded=1;whiteSpace=wrap;html=1;" vertex="1" parent="1">
          <mxGeometry x="640" y="210" width="120" height="60" as="geometry" />
        </mxCell>
        <mxCell id="QizWD92erUkwesUpK60B-35" style="edgeStyle=orthogonalEdgeStyle;rounded=0;orthogonalLoop=1;jettySize=auto;html=1;exitX=1;exitY=0;exitDx=0;exitDy=15;exitPerimeter=0;entryX=0.5;entryY=0;entryDx=0;entryDy=0;dashed=1;" edge="1" parent="1" source="QizWD92erUkwesUpK60B-24" target="QizWD92erUkwesUpK60B-2">
          <mxGeometry relative="1" as="geometry" />
        </mxCell>
        <mxCell id="QizWD92erUkwesUpK60B-24" value="EventHandlers" style="shape=cylinder3;whiteSpace=wrap;html=1;boundedLbl=1;backgroundOutline=1;size=15;fillColor=#d5e8d4;strokeColor=#82b366;" vertex="1" parent="1">
          <mxGeometry x="120" y="420" width="60" height="80" as="geometry" />
        </mxCell>
        <mxCell id="QizWD92erUkwesUpK60B-38" style="edgeStyle=orthogonalEdgeStyle;rounded=0;orthogonalLoop=1;jettySize=auto;html=1;exitX=0;exitY=0;exitDx=0;exitDy=15;exitPerimeter=0;entryX=0.5;entryY=0;entryDx=0;entryDy=0;dashed=1;" edge="1" parent="1" source="QizWD92erUkwesUpK60B-25" target="QizWD92erUkwesUpK60B-2">
          <mxGeometry relative="1" as="geometry" />
        </mxCell>
        <mxCell id="QizWD92erUkwesUpK60B-25" value="SignalHandler" style="shape=cylinder3;whiteSpace=wrap;html=1;boundedLbl=1;backgroundOutline=1;size=15;fillColor=#d5e8d4;strokeColor=#82b366;" vertex="1" parent="1">
          <mxGeometry x="260" y="420" width="60" height="80" as="geometry" />
        </mxCell>
        <mxCell id="QizWD92erUkwesUpK60B-29" value="Current" style="shape=cube;whiteSpace=wrap;html=1;boundedLbl=1;backgroundOutline=1;darkOpacity=0.05;darkOpacity2=0.1;" vertex="1" parent="1">
          <mxGeometry x="440" y="80" width="120" height="80" as="geometry" />
        </mxCell>
        <mxCell id="QizWD92erUkwesUpK60B-45" style="edgeStyle=orthogonalEdgeStyle;rounded=0;orthogonalLoop=1;jettySize=auto;html=1;exitX=1;exitY=0.75;exitDx=0;exitDy=0;entryX=1;entryY=0.5;entryDx=0;entryDy=0;" edge="1" parent="1" source="QizWD92erUkwesUpK60B-40" target="QizWD92erUkwesUpK60B-11">
          <mxGeometry relative="1" as="geometry" />
        </mxCell>
        <mxCell id="QizWD92erUkwesUpK60B-46" value="Handling info" style="edgeLabel;html=1;align=center;verticalAlign=middle;resizable=0;points=[];" vertex="1" connectable="0" parent="QizWD92erUkwesUpK60B-45">
          <mxGeometry x="0.0735" relative="1" as="geometry">
            <mxPoint as="offset" />
          </mxGeometry>
        </mxCell>
        <mxCell id="QizWD92erUkwesUpK60B-52" value="" style="edgeStyle=orthogonalEdgeStyle;rounded=0;orthogonalLoop=1;jettySize=auto;html=1;" edge="1" parent="1" source="QizWD92erUkwesUpK60B-40" target="QizWD92erUkwesUpK60B-51">
          <mxGeometry relative="1" as="geometry" />
        </mxCell>
        <mxCell id="QizWD92erUkwesUpK60B-40" value="flters" style="whiteSpace=wrap;html=1;rounded=1;" vertex="1" parent="1">
          <mxGeometry x="440" y="430" width="120" height="60" as="geometry" />
        </mxCell>
        <mxCell id="QizWD92erUkwesUpK60B-51" value="" style="whiteSpace=wrap;html=1;rounded=1;" vertex="1" parent="1">
          <mxGeometry x="440" y="570" width="120" height="60" as="geometry" />
        </mxCell>
      </root>
    </mxGraphModel>
  </diagram>
</mxfile>
